PathFileType	4	(X/Y/Z)	SUBJ32_1_walk_RCNL2025.trc
DataRate	CameraRate	NumFrames	NumMarkers	Units	OrigDataRate	OrigDataStartFrame	OrigNumFrames
100	100	11	25	mm	100	83	331
Frame#	Time	R_Shoulder			L_Shoulder			C7			J_Notch			R_Elbow			L_Elbow			R_Wrist			L_Wrist			R_Asis			L_Asis			Sacral			Thoracic			Sternum			R_Thigh_Lateral			R_Knee_Lateral			R_Shank_Lateral			R_Ankle_Lateral			R_Heel			R_Toe			L_Thigh_Lateral			L_Knee_Lateral			L_Shank_Lateral			L_Ankle_Lateral			L_Heel			L_Toe		
		X1	Y1	Z1	X2	Y2	Z2	X3	Y3	Z3	X4	Y4	Z4	X5	Y5	Z5	X6	Y6	Z6	X7	Y7	Z7	X8	Y8	Z8	X9	Y9	Z9	X10	Y10	Z10	X11	Y11	Z11	X12	Y12	Z12	X13	Y13	Z13	X14	Y14	Z14	X15	Y15	Z15	X16	Y16	Z16	X17	Y17	Z17	X18	Y18	Z18	X19	Y19	Z19	X20	Y20	Z20	X21	Y21	Z21	X22	Y22	Z22	X23	Y23	Z23	X24	Y24	Z24	X25	Y25	Z25
83	0.82000000	-313.563293	1345.351929	-66.906914	-329.817688	1346.793945	-436.811218	-343.741089	1420.603882	-244.055145	-229.411560	1308.718018	-254.578552	-431.803833	1034.786743	49.157444	-382.428040	1035.752441	-552.126099	-391.239380	788.938019	79.308998	-219.921242	836.813110	-565.616302	-252.224197	880.074585	-138.407135	-296.001831	878.178162	-390.061188	-467.253601	927.669189	-229.363815	-462.970764	1190.593750	-237.649933	-175.992538	1086.445923	-264.557648	-254.512695	519.351257	-67.100319	-210.270493	438.951874	-114.928329	-164.888733	284.050507	-50.330456	-67.469055	76.012436	-162.987991	-109.297935	48.524273	-219.640045	60.961796	106.359947	-187.296738	-452.247498	549.906860	-463.788086	-471.717041	458.532623	-413.353577	-552.854248	244.882416	-425.898285	-619.016296	74.612289	-318.811890	-666.323547	77.427185	-267.402985	-485.939514	40.579830	-300.748688
84	0.83000000	-302.104645	1343.454468	-65.654327	-317.723083	1345.438721	-435.426208	-331.873718	1418.805786	-242.650620	-217.472534	1306.962769	-253.177322	-420.940765	1032.801392	49.765091	-370.323364	1034.977539	-552.024658	-380.749466	786.820862	79.704891	-208.260536	835.747589	-566.600525	-239.395599	878.167175	-138.636612	-284.461853	876.673462	-390.222961	-454.914093	925.697083	-228.690216	-451.073120	1188.662354	-236.696930	-163.919998	1084.835571	-263.806488	-239.356476	518.622498	-67.686386	-196.382965	437.539398	-115.764557	-150.147202	282.509521	-51.591827	-53.859619	74.659096	-165.135361	-96.197105	47.465904	-221.363708	74.249947	105.196815	-190.805710	-443.538635	549.648865	-464.414429	-463.889435	458.325958	-414.150696	-548.360840	245.777344	-426.911987	-618.015625	76.789871	-319.761505	-665.548340	80.624542	-268.587067	-485.720490	40.642311	-300.919037
85	0.84000000	-290.501770	1341.577148	-64.260559	-305.597290	1344.128174	-433.927795	-319.892181	1417.097046	-241.078201	-205.408829	1305.298828	-251.672211	-409.840302	1030.767578	50.412529	-358.359680	1034.262085	-551.749512	-369.984253	784.663818	80.113605	-197.076180	834.466003	-567.509918	-226.337418	876.471558	-138.840469	-272.627563	875.184692	-390.360748	-442.379120	923.788879	-228.071213	-439.019684	1186.796509	-235.659561	-151.651001	1083.327271	-262.980652	-223.189056	518.614441	-67.930794	-182.288681	436.350159	-116.385002	-136.222244	280.862335	-52.803631	-42.744503	72.887924	-167.161224	-85.744400	46.466438	-222.951660	85.282478	102.261879	-194.403564	-434.319397	549.378967	-465.121521	-455.566467	458.092865	-415.074066	-543.431213	246.744125	-428.091034	-616.837585	79.212059	-320.933105	-664.614685	84.205055	-270.050507	-485.433868	40.706970	-301.133392
86	0.85000000	-278.748474	1339.729492	-62.728088	-293.438416	1342.889282	-432.326813	-307.783966	1415.522583	-239.338272	-193.217041	1303.761230	-250.074341	-398.484253	1028.693359	51.095200	-346.539398	1033.624878	-551.295959	-358.936691	782.472717	80.530045	-186.380150	832.989258	-568.338013	-213.076477	875.052124	-139.017700	-260.512482	873.715759	-390.455536	-429.670593	921.995972	-227.510513	-426.816071	1185.053955	-234.546295	-139.180771	1081.957642	-262.098419	-206.510513	519.158997	-67.941345	-168.197800	435.351593	-116.802383	-123.089760	279.136841	-53.945892	-33.784916	70.882050	-168.970291	-77.562691	45.712471	-224.341339	94.433762	97.741302	-197.884552	-424.520721	549.073242	-465.876678	-446.649933	457.804016	-416.102692	-538.009949	247.791321	-429.377747	-615.425903	81.921684	-322.273987	-663.422119	88.236824	-271.731445	-485.056396	40.772835	-301.375519
87	0.86000000	-266.842163	1337.930298	-61.062969	-281.244751	1341.761230	-430.638123	-295.532654	1414.138916	-237.436676	-180.899109	1302.397217	-248.396072	-386.854248	1026.595459	51.804764	-334.865082	1033.091431	-550.657837	-347.604004	780.260895	80.947479	-176.188759	831.345276	-569.077789	-199.663544	873.970459	-139.182465	-248.135864	872.294128	-390.498779	-416.829620	920.393188	-227.012527	-414.474518	1183.507080	-233.370926	-126.512428	1080.769653	-261.173981	-189.824997	520.061340	-67.811127	-154.268036	434.560089	-117.011658	-110.634697	277.433136	-54.968548	-26.590786	68.852913	-170.474167	-71.225586	45.384686	-225.471542	102.088692	91.957062	-201.029068	-414.072723	548.713928	-466.648315	-437.017700	457.435089	-417.219788	-532.028564	248.943390	-430.718536	-613.701416	84.977448	-323.736359	-661.841797	92.812851	-273.574677	-484.564453	40.839802	-301.627106
88	0.87000000	-254.780640	1336.210205	-59.277523	-269.015778	1340.796387	-428.880096	-283.120972	1413.009155	-235.386017	-168.461853	1301.264038	-246.651031	-374.928650	1024.502563	52.528751	-323.339111	1032.695679	-549.826965	-335.986328	778.051697	81.357452	-166.523361	829.570740	-569.718842	-186.174286	873.279053	-139.348984	-235.522186	870.974243	-390.492554	-403.913239	919.070374	-226.584839	-402.013977	1182.236938	-232.155792	-113.657745	1079.812622	-260.216644	-173.540344	521.169189	-67.591873	-140.562393	434.046875	-116.989960	-98.670341	275.921356	-55.789383	-20.773731	66.990494	-171.605057	-66.320168	45.578911	-226.279449	108.571259	85.346977	-203.661362	-402.898743	548.292419	-467.415558	-426.527435	456.970612	-418.420258	-525.398254	250.242813	-432.078430	-611.556946	88.453369	-325.290833	-659.714539	98.043266	-275.549255	-483.937592	40.907757	-301.871857
89	0.88000000	-242.561188	1334.613037	-57.392288	-256.751892	1340.058472	-427.073212	-270.536591	1412.194092	-233.205811	-155.916229	1300.421509	-244.853790	-362.680939	1022.455383	53.251595	-311.964539	1032.478882	-548.791931	-324.084793	775.879791	81.749638	-157.410133	827.711761	-570.246033	-172.702866	873.013062	-139.512222	-222.705292	869.828369	-390.442291	-390.985443	918.113586	-226.238297	-389.459747	1181.318726	-230.931412	-100.638649	1079.138794	-259.231995	-157.898819	522.407776	-67.285873	-127.049232	433.912109	-116.707939	-86.955040	274.817444	-56.299580	-16.007908	65.427971	-172.333450	-62.502598	46.258022	-226.714844	114.086525	78.432869	-205.700119	-390.915680	547.808777	-468.174744	-415.024841	456.404205	-419.716461	-518.008484	251.749619	-433.450287	-608.855896	92.433769	-326.933685	-656.851746	104.042931	-277.657776	-483.162140	40.975098	-302.101318
90	0.89000000	-230.182739	1333.192505	-55.436317	-244.453583	1339.617432	-425.237701	-257.778412	1411.738647	-230.923477	-143.276993	1299.919067	-243.020798	-350.083557	1020.506714	53.956234	-300.746338	1032.488037	-547.539001	-311.899323	773.792297	82.112431	-148.878044	825.823090	-570.639648	-159.348740	873.181091	-139.638718	-209.737823	868.927856	-390.345490	-378.106903	917.581360	-225.983368	-376.841949	1180.806030	-229.731277	-87.489517	1078.796387	-258.223755	-142.963547	523.766235	-66.857010	-113.652992	434.234924	-116.148491	-75.228714	274.327484	-56.397800	-12.070827	64.230515	-172.684830	-59.526794	47.272087	-226.771286	118.714386	71.745483	-207.186096	-378.042603	547.269897	-468.943146	-402.357605	455.737885	-421.139526	-509.734344	253.536697	-434.856293	-605.434998	97.002182	-328.686462	-653.042419	110.913330	-279.932678	-482.234039	41.039509	-302.316498
91	0.90000000	-217.648636	1332.006348	-53.445904	-232.120361	1339.538818	-423.391907	-244.863403	1411.662109	-228.575043	-130.563034	1299.779907	-241.172318	-337.116211	1018.716675	54.626156	-289.692352	1032.772827	-546.056763	-299.426819	771.847412	82.434799	-140.953613	823.965179	-570.877411	-146.199570	873.761597	-139.675659	-196.699493	868.322693	-390.183533	-365.327789	917.487000	-225.823746	-364.194153	1180.717529	-228.584152	-74.258606	1078.817261	-257.195190	-128.660828	525.264221	-66.255882	-100.337852	435.023529	-115.327240	-63.320049	274.562622	-56.049778	-8.831620	63.406334	-172.740524	-57.232910	48.429443	-226.503830	122.471817	65.723289	-208.271866	-364.212311	546.687988	-469.758301	-388.396759	454.982147	-422.734589	-500.452148	255.680176	-436.342651	-601.112366	102.225502	-330.588379	-648.065796	118.719658	-282.422607	-481.156616	41.103317	-302.523865
92	0.91000000	-204.969101	1331.105835	-51.461514	-219.751144	1339.871582	-421.551849	-231.832458	1411.953613	-226.201981	-117.799904	1299.991333	-239.333466	-323.774200	1017.146057	55.247696	-278.812286	1033.378052	-544.343323	-286.660378	770.109589	82.708965	-133.653515	822.199951	-570.937531	-133.314926	874.707458	-139.570236	-183.687363	868.032410	-389.925323	-352.683105	917.797302	-225.748642	-351.551544	1181.034424	-227.507492	-61.008698	1079.206177	-256.151978	-114.875740	526.915161	-65.452065	-87.182579	436.192444	-114.304520	-51.307468	275.456726	-55.327969	-6.200142	62.925774	-172.616379	-55.508713	49.565453	-226.013046	125.396629	60.644016	-209.166000	-349.379974	546.076172	-470.672211	-373.061188	454.155365	-424.552887	-490.057190	258.244446	-437.968262	-595.699219	108.136826	-332.683044	-641.711487	127.469070	-285.172577	-479.928558	41.182739	-302.731445
93	0.92000000	-192.162140	1330.526978	-49.522758	-207.347305	1340.636841	-419.732086	-218.748978	1412.577515	-223.845642	-105.022858	1300.507568	-237.533127	-310.075165	1015.846680	55.812134	-268.116119	1034.334351	-542.410645	-273.588997	768.642059	82.932758	-126.977119	820.585052	-570.800659	-120.715988	875.953735	-139.283829	-170.783585	868.052856	-389.543640	-340.190125	918.444885	-225.726273	-338.949005	1181.705811	-226.504227	-47.815716	1079.935669	-255.106598	-101.581024	528.678955	-64.465248	-74.403534	437.576660	-113.177399	-39.590443	276.759369	-54.387905	-4.085873	62.732758	-172.432022	-54.254021	50.575672	-225.413925	127.586975	56.611523	-210.047180	-333.527924	545.445435	-471.740234	-356.337769	453.281616	-426.640289	-478.475098	261.261627	-439.790039	-589.020081	114.721024	-335.000702	-633.804260	137.094208	-288.200073	-478.523590	41.318676	-302.947693
